<svg width="147" height="72" viewBox="0 0 147 72" fill="none" xmlns="http://www.w3.org/2000/svg">
<path d="M21.6591 27.0909V33.4545H1.59091V27.0909H21.6591ZM6.54545 18.7273H14.7727V51.5C14.7727 52.6061 14.9394 53.4545 15.2727 54.0455C15.6212 54.6212 16.0758 55.0152 16.6364 55.2273C17.197 55.4394 17.8182 55.5455 18.5 55.5455C19.0152 55.5455 19.4848 55.5076 19.9091 55.4318C20.3485 55.3561 20.6818 55.2879 20.9091 55.2273L22.2955 61.6591C21.8561 61.8106 21.2273 61.9773 20.4091 62.1591C19.6061 62.3409 18.6212 62.447 17.4545 62.4773C15.3939 62.5379 13.5379 62.2273 11.8864 61.5455C10.2348 60.8485 8.92424 59.7727 7.95455 58.3182C7 56.8636 6.5303 55.0455 6.54545 52.8636V18.7273ZM28.5398 62V27.0909H36.517V32.9091H36.8807C37.517 30.8939 38.608 29.3409 40.1534 28.25C41.714 27.1439 43.4943 26.5909 45.4943 26.5909C45.9489 26.5909 46.4564 26.6136 47.017 26.6591C47.5928 26.6894 48.0701 26.7424 48.4489 26.8182V34.3864C48.1004 34.2652 47.5473 34.1591 46.7898 34.0682C46.0473 33.9621 45.3277 33.9091 44.6307 33.9091C43.1307 33.9091 41.7822 34.2348 40.5852 34.8864C39.4034 35.5227 38.4716 36.4091 37.7898 37.5455C37.108 38.6818 36.767 39.9924 36.767 41.4773V62H28.5398ZM53.9148 62V27.0909H62.142V62H53.9148ZM58.0511 22.1364C56.7481 22.1364 55.6269 21.7045 54.6875 20.8409C53.7481 19.9621 53.2784 18.9091 53.2784 17.6818C53.2784 16.4394 53.7481 15.3864 54.6875 14.5227C55.6269 13.6439 56.7481 13.2045 58.0511 13.2045C59.3693 13.2045 60.4905 13.6439 61.4148 14.5227C62.3542 15.3864 62.8239 16.4394 62.8239 17.6818C62.8239 18.9091 62.3542 19.9621 61.4148 20.8409C60.4905 21.7045 59.3693 22.1364 58.0511 22.1364ZM70.9659 62V15.4545H79.1932V32.8636H79.5341C79.9583 32.0152 80.5568 31.1136 81.3295 30.1591C82.1023 29.1894 83.1477 28.3636 84.4659 27.6818C85.7841 26.9848 87.4659 26.6364 89.5114 26.6364C92.2083 26.6364 94.6402 27.3258 96.8068 28.7045C98.9886 30.0682 100.716 32.0909 101.989 34.7727C103.277 37.4394 103.92 40.7121 103.92 44.5909C103.92 48.4242 103.292 51.6818 102.034 54.3636C100.777 57.0455 99.0644 59.0909 96.8977 60.5C94.7311 61.9091 92.2765 62.6136 89.5341 62.6136C87.5341 62.6136 85.875 62.2803 84.5568 61.6136C83.2386 60.947 82.178 60.1439 81.375 59.2045C80.5871 58.25 79.9735 57.3485 79.5341 56.5H79.0568V62H70.9659ZM79.0341 44.5455C79.0341 46.803 79.3523 48.7803 79.9886 50.4773C80.6402 52.1742 81.572 53.5 82.7841 54.4545C84.0114 55.3939 85.4962 55.8636 87.2386 55.8636C89.0568 55.8636 90.5795 55.3788 91.8068 54.4091C93.0341 53.4242 93.9583 52.0833 94.5795 50.3864C95.2159 48.6742 95.5341 46.7273 95.5341 44.5455C95.5341 42.3788 95.2235 40.4545 94.6023 38.7727C93.9811 37.0909 93.0568 35.7727 91.8295 34.8182C90.6023 33.8636 89.072 33.3864 87.2386 33.3864C85.4811 33.3864 83.9886 33.8485 82.7614 34.7727C81.5341 35.697 80.6023 36.9924 79.9659 38.6591C79.3447 40.3258 79.0341 42.2879 79.0341 44.5455ZM126.369 62.6818C122.869 62.6818 119.847 61.9545 117.301 60.5C114.771 59.0303 112.824 56.9545 111.46 54.2727C110.097 51.5758 109.415 48.4015 109.415 44.75C109.415 41.1591 110.097 38.0076 111.46 35.2955C112.839 32.5682 114.763 30.447 117.233 28.9318C119.703 27.4015 122.604 26.6364 125.938 26.6364C128.089 26.6364 130.119 26.9848 132.028 27.6818C133.953 28.3636 135.65 29.4242 137.119 30.8636C138.604 32.303 139.771 34.1364 140.619 36.3636C141.468 38.5758 141.892 41.2121 141.892 44.2727V46.7955H113.278V41.25H134.006C133.991 39.6742 133.65 38.2727 132.983 37.0455C132.316 35.803 131.384 34.8258 130.188 34.1136C129.006 33.4015 127.627 33.0455 126.051 33.0455C124.369 33.0455 122.892 33.4545 121.619 34.2727C120.347 35.0758 119.354 36.1364 118.642 37.4545C117.945 38.7576 117.589 40.1894 117.574 41.75V46.5909C117.574 48.6212 117.945 50.3636 118.688 51.8182C119.43 53.2576 120.468 54.3636 121.801 55.1364C123.134 55.8939 124.695 56.2727 126.483 56.2727C127.68 56.2727 128.763 56.1061 129.733 55.7727C130.703 55.4242 131.544 54.9167 132.256 54.25C132.968 53.5833 133.506 52.7576 133.869 51.7727L141.551 52.6364C141.066 54.6667 140.142 56.4394 138.778 57.9545C137.43 59.4545 135.703 60.6212 133.597 61.4545C131.491 62.2727 129.081 62.6818 126.369 62.6818Z" fill="#0C8F8F"/>
<circle cx="58" cy="18" r="5" fill="#FFAD08"/>
</svg>
